{"title":"Beasts.Of.No.Nation.2015.WEBRip.480p.x264.AAC-VYTO [P2PDL]","uid":12892094,"size":521509226,"categoryP":"video","categoryS":"movies","magnet":"?xt=urn:btih:3eb1fdf2fc839d41df5bfbcb09eb39e4f7d56753&amp;dn=Beasts.Of.No.Nation.2015.WEBRip.480p.x264.AAC-VYTO+%5BP2PDL%5D&amp;tr=udp%3A%2F%2Ftracker.leechers-paradise.org%3A6969&amp;tr=udp%3A%2F%2Fzer0day.ch%3A1337&amp;tr=udp%3A%2F%2Fopen.demonii.com%3A1337&amp;tr=udp%3A%2F%2Ftracker.coppersurfer.tk%3A6969&amp;tr=udp%3A%2F%2Fexodus.desync.com%3A6969","seeders":2,"leechers":1,"uploader":"VYTOP2PDL","files":7,"time":1449141567,"description":"____    ____ ____    ____ .___________.  ______   \r\n     /   /      /   / |           | /  __    \r\n    /   /      /   /  `---|  |----`|  |  |  | \r\n        /     _    _/       |  |     |  |  |  | \r\n       /        |  |         |  |     |  `--'  | \r\n    __/         |__|         |__|      ______/  \r\n                                                  \r\nPresenting Small Encodes with quality for years!\r\n                                                                                                   \r\n                                                                                                   \r\n\r\nBeasts.Of.No.Nation.2015.WEBRip.480p.x264.AAC-VYTO\r\n\r\n\r\nGenre: Drama, War    \nhttp://www.imdb.com/title/tt1365050/\r\n\r\n\r\nGeneral\r\nFormat                         : MPEG-4\r\nFile size                      : 487 MiB\r\nDuration                       : 2h 16mn\r\nOverall bit rate               : 499 Kbps\r\n\r\nVideo\r\nFormat                         : AVC\r\nBit rate                       : 464 Kbps\r\nWidth                          : 720 pixels\r\nHeight                         : 304 pixels\r\nDisplay aspect ratio           : 2.35:1\r\nFrame rate mode                : Constant\r\nFrame rate                     : 23.976 fps\r\nBit depth                      : 8 bits\r\nStream size                    : 453 MiB (93%)\r\nWriting library                : x264\r\n\r\nAudio\r\nFormat                         : AAC\r\nBit rate mode                  : Variable\r\nBit rate                       : 32.0 Kbps\r\nChannel(s)                     : 2 channels \r\nChannel positions              : Front: L R\r\nSampling rate                  : 48.0 KHz\r\nStream size                    : 31.3 MiB (6%)\r\nLanguage                       : English\r\n\r\nSubtitle                       : Yes (English)\r\n \nhttp://ititli.com/m0 \nhttp://ititli.com/mA \nhttp://ititli.com/ml \nhttp://ititli.com/mm \nhttp://ititli.com/mx \nhttp://ititli.com/m7 \nhttp://ititli.com/mC \nhttp://ititli.com/mF \nhttp://ititli.com/mJ\r\n\r\n----------------------------------------------------------------------------------------------------\r\n\r\n\r\nEncoder Notes: Looking For Early Access To Anything You Can Provide DVDScr, R5, DVDR, BluRay, Direct\r\nAudio, Music Releases and Seedboxes. If You Got anything to offer please contact us.\r\n\r\nSupport us by donating BC - 1FgwdzPsd1y25Gea8wP1qni35uGCtmkRCD","torrent":{"xt":"urn:btih:3eb1fdf2fc839d41df5bfbcb09eb39e4f7d56753","amp;dn":"Beasts.Of.No.Nation.2015.WEBRip.480p.x264.AAC-VYTO+%5BP2PDL%5D","amp;tr":["udp%3A%2F%2Ftracker.leechers-paradise.org%3A6969","udp%3A%2F%2Fzer0day.ch%3A1337","udp%3A%2F%2Fopen.demonii.com%3A1337","udp%3A%2F%2Ftracker.coppersurfer.tk%3A6969","udp%3A%2F%2Fexodus.desync.com%3A6969"],"infoHash":"3eb1fdf2fc839d41df5bfbcb09eb39e4f7d56753","infoHashBuffer":{"type":"Buffer","data":[62,177,253,242,252,131,157,65,223,91,251,203,9,235,57,228,247,213,103,83]},"announce":[],"urlList":[]}}